<mxfile host="Electron" agent="Mozilla/5.0 (Windows NT 10.0; Win64; x64) AppleWebKit/537.36 (KHTML, like Gecko) draw.io/28.1.2 Chrome/138.0.7204.243 Electron/37.4.0 Safari/537.36" version="28.1.2">
  <diagram name="Page-1" id="eTh3aw0WYXCbbovTG8zj">
    <mxGraphModel dx="816" dy="702" grid="1" gridSize="10" guides="1" tooltips="1" connect="1" arrows="1" fold="0" page="1" pageScale="1" pageWidth="1100" pageHeight="850" math="0" shadow="0" adaptiveColors="none">
      <root>
        <mxCell id="0" />
        <mxCell id="1" parent="0" />
        <mxCell id="D5LrwT91D5c0MHAF4rOE-90" style="edgeStyle=orthogonalEdgeStyle;shape=connector;rounded=0;orthogonalLoop=1;jettySize=auto;html=1;exitX=0.62;exitY=1;exitDx=0;exitDy=0;exitPerimeter=0;entryX=0.543;entryY=0.001;entryDx=0;entryDy=0;entryPerimeter=0;strokeColor=default;strokeWidth=3;align=center;verticalAlign=middle;fontFamily=Helvetica;fontSize=11;fontColor=default;labelBackgroundColor=default;endArrow=none;endFill=0;" parent="1" source="lbnmV9Moz0TXLxYADeuH-9" target="lbnmV9Moz0TXLxYADeuH-22" edge="1">
          <mxGeometry relative="1" as="geometry">
            <Array as="points">
              <mxPoint x="321" y="393" />
              <mxPoint x="221" y="393" />
            </Array>
          </mxGeometry>
        </mxCell>
        <mxCell id="lbnmV9Moz0TXLxYADeuH-19" style="rounded=0;orthogonalLoop=1;jettySize=auto;html=1;exitX=0.5;exitY=0;exitDx=0;exitDy=0;exitPerimeter=0;endArrow=none;endFill=0;strokeWidth=3;elbow=vertical;edgeStyle=elbowEdgeStyle;" parent="1" source="lbnmV9Moz0TXLxYADeuH-7" target="lbnmV9Moz0TXLxYADeuH-11" edge="1">
          <mxGeometry relative="1" as="geometry">
            <Array as="points">
              <mxPoint x="220" y="237.25" />
              <mxPoint x="300" y="247.25" />
            </Array>
          </mxGeometry>
        </mxCell>
        <mxCell id="NO0hMIeCVV5FIhQQeRoq-9" value="2.5Gb PoE" style="edgeLabel;html=1;align=center;verticalAlign=middle;resizable=0;points=[];" parent="lbnmV9Moz0TXLxYADeuH-19" vertex="1" connectable="0">
          <mxGeometry x="-0.0229" y="2" relative="1" as="geometry">
            <mxPoint x="34" as="offset" />
          </mxGeometry>
        </mxCell>
        <mxCell id="lbnmV9Moz0TXLxYADeuH-7" value="&lt;b&gt;MikroTik Router&lt;/b&gt;" style="sketch=0;points=[[0.5,0,0],[1,0.5,0],[0.5,1,0],[0,0.5,0],[0.145,0.145,0],[0.8555,0.145,0],[0.855,0.8555,0],[0.145,0.855,0]];verticalLabelPosition=bottom;html=1;verticalAlign=top;aspect=fixed;align=center;pointerEvents=1;shape=mxgraph.cisco19.rect;prIcon=router;fillColor=#FAFAFA;strokeColor=#005073;" parent="1" vertex="1">
          <mxGeometry x="160" y="297.25" width="50" height="50" as="geometry" />
        </mxCell>
        <mxCell id="NO0hMIeCVV5FIhQQeRoq-6" style="edgeStyle=orthogonalEdgeStyle;rounded=0;orthogonalLoop=1;jettySize=auto;html=1;exitX=0.5;exitY=1;exitDx=0;exitDy=0;exitPerimeter=0;entryX=0.5;entryY=0;entryDx=0;entryDy=0;endArrow=none;endFill=0;strokeWidth=3;" parent="1" source="lbnmV9Moz0TXLxYADeuH-9" target="lbnmV9Moz0TXLxYADeuH-22" edge="1">
          <mxGeometry relative="1" as="geometry">
            <Array as="points">
              <mxPoint x="315" y="387.25" />
              <mxPoint x="215" y="387.25" />
            </Array>
          </mxGeometry>
        </mxCell>
        <mxCell id="D5LrwT91D5c0MHAF4rOE-92" value="&lt;span style=&quot;font-size: 8px;&quot;&gt;2x10Gb Fiber PortChannel&lt;/span&gt;" style="edgeLabel;html=1;align=center;verticalAlign=middle;resizable=0;points=[];fontFamily=Helvetica;fontSize=11;fontColor=default;labelBackgroundColor=none;" parent="NO0hMIeCVV5FIhQQeRoq-6" vertex="1" connectable="0">
          <mxGeometry x="0.0702" y="2" relative="1" as="geometry">
            <mxPoint x="1" y="8" as="offset" />
          </mxGeometry>
        </mxCell>
        <mxCell id="lbnmV9Moz0TXLxYADeuH-9" value="&lt;b style=&quot;background-color: light-dark(#ffffff, var(--ge-dark-color, #121212));&quot;&gt;Cisco Core Switch&lt;/b&gt;" style="sketch=0;points=[[0,0.25,0,0,0],[0,0.5,0,0,0],[0,0.75,0,0,0],[0.015,0.015,0,0,0],[0.015,0.985,0,0,0],[0.25,0,0,0,0],[0.25,1,0,0,0],[0.5,0,0,0,0],[0.5,1,0,0,0],[0.62,1,0,0,0],[0.75,0,0,0,0],[0.75,1,0,0,0],[0.985,0.015,0,0,0],[0.985,0.985,0,0,0],[1,0.25,0,0,0],[1,0.5,0,0,0],[1,0.75,0,0,0]];verticalLabelPosition=bottom;html=1;verticalAlign=top;aspect=fixed;align=center;pointerEvents=1;shape=mxgraph.cisco19.rect;prIcon=workgroup_switch;fillColor=#FAFAFA;strokeColor=#005073;" parent="1" vertex="1">
          <mxGeometry x="290" y="297.25" width="50" height="50" as="geometry" />
        </mxCell>
        <mxCell id="lbnmV9Moz0TXLxYADeuH-11" value="Ubiqiti AP" style="fillColorStyles=neutralFill;neutralFill=#9DA6A8;shape=mxgraph.networks2.icon;aspect=fixed;fillColor=#EDEDED;strokeColor=#000000;gradientColor=#5B6163;network2IconShadow=1;network2bgFillColor=none;labelPosition=center;verticalLabelPosition=bottom;align=center;verticalAlign=top;network2Icon=mxgraph.networks2.wireless_hub;network2IconYOffset=-0.1142;network2IconW=1;network2IconH=0.5485;fontStyle=1" parent="1" vertex="1">
          <mxGeometry x="290" y="217.25" width="50" height="27.425" as="geometry" />
        </mxCell>
        <mxCell id="lbnmV9Moz0TXLxYADeuH-18" style="edgeStyle=none;rounded=0;orthogonalLoop=1;jettySize=auto;html=1;exitX=1;exitY=0.5;exitDx=0;exitDy=0;exitPerimeter=0;entryX=0;entryY=0.5;entryDx=0;entryDy=0;entryPerimeter=0;endArrow=none;endFill=0;strokeWidth=3;" parent="1" source="lbnmV9Moz0TXLxYADeuH-7" target="lbnmV9Moz0TXLxYADeuH-9" edge="1">
          <mxGeometry relative="1" as="geometry" />
        </mxCell>
        <mxCell id="NO0hMIeCVV5FIhQQeRoq-28" value="10Gb Fiber" style="edgeLabel;html=1;align=center;verticalAlign=middle;resizable=0;points=[];" parent="lbnmV9Moz0TXLxYADeuH-18" vertex="1" connectable="0">
          <mxGeometry x="-0.0167" relative="1" as="geometry">
            <mxPoint as="offset" />
          </mxGeometry>
        </mxCell>
        <mxCell id="OCqcyEJDrD8Cijfm78Pi-2" style="edgeStyle=orthogonalEdgeStyle;shape=connector;rounded=0;orthogonalLoop=1;jettySize=auto;html=1;exitX=1;exitY=0.75;exitDx=0;exitDy=0;strokeColor=default;strokeWidth=3;align=center;verticalAlign=middle;fontFamily=Helvetica;fontSize=11;fontColor=default;labelBackgroundColor=default;endArrow=none;endFill=0;" parent="1" source="lbnmV9Moz0TXLxYADeuH-22" edge="1">
          <mxGeometry relative="1" as="geometry">
            <mxPoint x="302" y="616.25" as="targetPoint" />
          </mxGeometry>
        </mxCell>
        <mxCell id="D5LrwT91D5c0MHAF4rOE-105" value="&lt;span style=&quot;font-size: 8px;&quot;&gt;10Gb Copper&lt;/span&gt;" style="edgeLabel;html=1;align=center;verticalAlign=middle;resizable=0;points=[];fontFamily=Helvetica;fontSize=11;fontColor=default;labelBackgroundColor=default;" parent="OCqcyEJDrD8Cijfm78Pi-2" vertex="1" connectable="0">
          <mxGeometry x="0.7618" y="-1" relative="1" as="geometry">
            <mxPoint x="-1" y="-3" as="offset" />
          </mxGeometry>
        </mxCell>
        <mxCell id="OCqcyEJDrD8Cijfm78Pi-7" style="edgeStyle=orthogonalEdgeStyle;shape=connector;rounded=0;orthogonalLoop=1;jettySize=auto;html=1;exitX=-0.001;exitY=0.707;exitDx=0;exitDy=0;strokeColor=default;strokeWidth=3;align=center;verticalAlign=middle;fontFamily=Helvetica;fontSize=11;fontColor=default;labelBackgroundColor=default;endArrow=none;endFill=0;exitPerimeter=0;" parent="1" source="lbnmV9Moz0TXLxYADeuH-22" target="h3bOcEDEYmljnP3_BpeO-5" edge="1">
          <mxGeometry relative="1" as="geometry" />
        </mxCell>
        <mxCell id="D5LrwT91D5c0MHAF4rOE-103" value="&lt;font style=&quot;font-size: 8px;&quot;&gt;1Gb Copper&lt;/font&gt;" style="edgeLabel;html=1;align=center;verticalAlign=middle;resizable=0;points=[];fontFamily=Helvetica;fontSize=11;fontColor=default;labelBackgroundColor=default;" parent="OCqcyEJDrD8Cijfm78Pi-7" vertex="1" connectable="0">
          <mxGeometry x="0.6741" relative="1" as="geometry">
            <mxPoint y="-2" as="offset" />
          </mxGeometry>
        </mxCell>
        <mxCell id="NO0hMIeCVV5FIhQQeRoq-17" value="" style="group;movable=1;connectable=1;dropTarget=0;container=0;" parent="1" vertex="1" connectable="0">
          <mxGeometry x="150" y="407.25" width="130" height="130" as="geometry" />
        </mxCell>
        <mxCell id="lbnmV9Moz0TXLxYADeuH-22" value="Access Switches" style="rounded=1;whiteSpace=wrap;html=1;verticalAlign=top;movable=1;resizable=1;rotatable=1;deletable=1;editable=1;locked=0;connectable=1;labelPosition=center;verticalLabelPosition=bottom;align=center;fontStyle=1;container=0;" parent="NO0hMIeCVV5FIhQQeRoq-17" vertex="1">
          <mxGeometry width="130" height="130" as="geometry" />
        </mxCell>
        <mxCell id="lbnmV9Moz0TXLxYADeuH-12" value="" style="sketch=0;points=[[0.015,0.015,0],[0.985,0.015,0],[0.985,0.985,0],[0.015,0.985,0],[0.25,0,0],[0.5,0,0],[0.75,0,0],[1,0.25,0],[1,0.5,0],[1,0.75,0],[0.75,1,0],[0.5,1,0],[0.25,1,0],[0,0.75,0],[0,0.5,0],[0,0.25,0]];verticalLabelPosition=bottom;html=1;verticalAlign=top;aspect=fixed;align=center;pointerEvents=1;shape=mxgraph.cisco19.rect;prIcon=workgroup_switch;fillColor=#FAFAFA;strokeColor=#6696AB;movable=1;resizable=1;rotatable=1;deletable=1;editable=1;locked=0;connectable=1;container=0;" parent="NO0hMIeCVV5FIhQQeRoq-17" vertex="1">
          <mxGeometry x="70" y="70" width="50" height="50" as="geometry" />
        </mxCell>
        <mxCell id="lbnmV9Moz0TXLxYADeuH-13" value="" style="sketch=0;points=[[0.015,0.015,0],[0.985,0.015,0],[0.985,0.985,0],[0.015,0.985,0],[0.25,0,0],[0.5,0,0],[0.75,0,0],[1,0.25,0],[1,0.5,0],[1,0.75,0],[0.75,1,0],[0.5,1,0],[0.25,1,0],[0,0.75,0],[0,0.5,0],[0,0.25,0]];verticalLabelPosition=bottom;html=1;verticalAlign=top;aspect=fixed;align=center;pointerEvents=1;shape=mxgraph.cisco19.rect;prIcon=workgroup_switch;fillColor=#FAFAFA;strokeColor=#6696AB;movable=1;resizable=1;rotatable=1;deletable=1;editable=1;locked=0;connectable=1;container=0;" parent="NO0hMIeCVV5FIhQQeRoq-17" vertex="1">
          <mxGeometry x="10" y="10" width="50" height="50" as="geometry" />
        </mxCell>
        <mxCell id="lbnmV9Moz0TXLxYADeuH-14" value="" style="sketch=0;points=[[0.015,0.015,0],[0.985,0.015,0],[0.985,0.985,0],[0.015,0.985,0],[0.25,0,0],[0.5,0,0],[0.75,0,0],[1,0.25,0],[1,0.5,0],[1,0.75,0],[0.75,1,0],[0.5,1,0],[0.25,1,0],[0,0.75,0],[0,0.5,0],[0,0.25,0]];verticalLabelPosition=bottom;html=1;verticalAlign=top;aspect=fixed;align=center;pointerEvents=1;shape=mxgraph.cisco19.rect;prIcon=workgroup_switch;fillColor=#FAFAFA;strokeColor=#6696AB;movable=1;resizable=1;rotatable=1;deletable=1;editable=1;locked=0;connectable=1;container=0;" parent="NO0hMIeCVV5FIhQQeRoq-17" vertex="1">
          <mxGeometry x="10" y="70" width="50" height="50" as="geometry" />
        </mxCell>
        <mxCell id="lbnmV9Moz0TXLxYADeuH-15" value="" style="sketch=0;points=[[0.015,0.015,0],[0.985,0.015,0],[0.985,0.985,0],[0.015,0.985,0],[0.25,0,0],[0.5,0,0],[0.75,0,0],[1,0.25,0],[1,0.5,0],[1,0.75,0],[0.75,1,0],[0.5,1,0],[0.25,1,0],[0,0.75,0],[0,0.5,0],[0,0.25,0]];verticalLabelPosition=bottom;html=1;verticalAlign=top;aspect=fixed;align=center;pointerEvents=1;shape=mxgraph.cisco19.rect;prIcon=workgroup_switch;fillColor=#FAFAFA;strokeColor=#6696AB;movable=1;resizable=1;rotatable=1;deletable=1;editable=1;locked=0;connectable=1;container=0;" parent="NO0hMIeCVV5FIhQQeRoq-17" vertex="1">
          <mxGeometry x="70" y="10" width="50" height="50" as="geometry" />
        </mxCell>
        <mxCell id="D5LrwT91D5c0MHAF4rOE-84" style="edgeStyle=none;shape=connector;rounded=0;orthogonalLoop=1;jettySize=auto;html=1;exitX=0.985;exitY=0.985;exitDx=0;exitDy=0;exitPerimeter=0;entryX=0;entryY=1;entryDx=0;entryDy=0;dashed=1;strokeColor=default;align=center;verticalAlign=middle;fontFamily=Helvetica;fontSize=11;fontColor=default;labelBackgroundColor=default;endArrow=none;endFill=0;" parent="1" source="NO0hMIeCVV5FIhQQeRoq-22" target="D5LrwT91D5c0MHAF4rOE-27" edge="1">
          <mxGeometry relative="1" as="geometry" />
        </mxCell>
        <mxCell id="D5LrwT91D5c0MHAF4rOE-85" style="edgeStyle=none;shape=connector;rounded=0;orthogonalLoop=1;jettySize=auto;html=1;exitX=0.985;exitY=0.015;exitDx=0;exitDy=0;exitPerimeter=0;entryX=0;entryY=0;entryDx=0;entryDy=0;dashed=1;strokeColor=default;align=center;verticalAlign=middle;fontFamily=Helvetica;fontSize=11;fontColor=default;labelBackgroundColor=default;endArrow=none;endFill=0;" parent="1" source="NO0hMIeCVV5FIhQQeRoq-22" target="D5LrwT91D5c0MHAF4rOE-27" edge="1">
          <mxGeometry relative="1" as="geometry" />
        </mxCell>
        <mxCell id="NO0hMIeCVV5FIhQQeRoq-22" value="&lt;b&gt;NAS&lt;/b&gt;" style="sketch=0;points=[[0.015,0.015,0],[0.985,0.015,0],[0.985,0.985,0],[0.015,0.985,0],[0.25,0,0],[0.5,0,0],[0.75,0,0],[1,0.25,0],[1,0.5,0],[1,0.75,0],[0.75,1,0],[0.5,1,0],[0.25,1,0],[0,0.75,0],[0,0.5,0],[0,0.25,0]];verticalLabelPosition=bottom;html=1;verticalAlign=top;aspect=fixed;align=center;pointerEvents=1;shape=mxgraph.cisco19.secure_server;fillColor=#005073;strokeColor=none;" parent="1" vertex="1">
          <mxGeometry x="436.25" y="227.25" width="27.500000000000004" height="50" as="geometry" />
        </mxCell>
        <mxCell id="NO0hMIeCVV5FIhQQeRoq-27" value="" style="group;verticalAlign=top;labelPosition=center;verticalLabelPosition=bottom;align=center;points=[[0,0,0,0,0],[0,0.25,0,0,0],[0,0.5,0,0,0],[0,0.75,0,0,0],[0,1,0,0,0],[0.1,0,0,0,0],[0.15,0,0,0,0],[0.25,1,0,0,0],[0.35,0,0,0,0],[0.4,0,0,0,0],[0.5,1,0,0,0],[0.6,0,0,0,0],[0.65,0,0,0,0],[0.75,1,0,0,0],[0.85,0,0,0,0],[0.9,0,0,0,0],[1,0,0,0,0],[1,0.25,0,0,0],[1,0.5,0,0,0],[1,0.75,0,0,0],[1,1,0,0,0]];" parent="1" vertex="1" connectable="0">
          <mxGeometry x="370" y="377.25" width="160" height="60" as="geometry" />
        </mxCell>
        <mxCell id="NO0hMIeCVV5FIhQQeRoq-26" value="&lt;font style=&quot;font-size: 8px;&quot;&gt;Lab Datacenter - CML, Ceph&lt;br&gt;4x i7-8700T (24C, 48T, 256GB)&lt;/font&gt;" style="rounded=0;whiteSpace=wrap;html=1;verticalAlign=top;labelPosition=center;verticalLabelPosition=bottom;align=center;fontStyle=1;points=[[0,0,0,0,0],[0,0.25,0,0,0],[0,0.5,0,0,0],[0,0.75,0,0,0],[0,1,0,0,0],[0.1,0,0,0,0],[0.15,0,0,0,0],[0.25,1,0,0,0],[0.35,0,0,0,0],[0.4,0,0,0,0],[0.5,1,0,0,0],[0.6,0,0,0,0],[0.65,0,0,0,0],[0.75,1,0,0,0],[0.85,0,0,0,0],[0.9,0,0,0,0],[1,0,0,0,0],[1,0.25,0,0,0],[1,0.5,0,0,0],[1,0.75,0,0,0],[1,1,0,0,0]];" parent="NO0hMIeCVV5FIhQQeRoq-27" vertex="1">
          <mxGeometry width="160" height="60" as="geometry" />
        </mxCell>
        <mxCell id="NO0hMIeCVV5FIhQQeRoq-21" value="" style="sketch=0;points=[[0.015,0.015,0],[0.985,0.015,0],[0.985,0.985,0],[0.015,0.985,0],[0.25,0,0],[0.5,0,0],[0.75,0,0],[1,0.25,0],[1,0.5,0],[1,0.75,0],[0.75,1,0],[0.5,1,0],[0.25,1,0],[0,0.75,0],[0,0.5,0],[0,0.25,0]];verticalLabelPosition=bottom;html=1;verticalAlign=top;aspect=fixed;align=center;pointerEvents=1;shape=mxgraph.cisco19.server;fillColor=#005073;strokeColor=none;" parent="NO0hMIeCVV5FIhQQeRoq-27" vertex="1">
          <mxGeometry x="6" y="5" width="27.500000000000004" height="50" as="geometry" />
        </mxCell>
        <mxCell id="NO0hMIeCVV5FIhQQeRoq-23" value="" style="sketch=0;points=[[0.015,0.015,0],[0.985,0.015,0],[0.985,0.985,0],[0.015,0.985,0],[0.25,0,0],[0.5,0,0],[0.75,0,0],[1,0.25,0],[1,0.5,0],[1,0.75,0],[0.75,1,0],[0.5,1,0],[0.25,1,0],[0,0.75,0],[0,0.5,0],[0,0.25,0]];verticalLabelPosition=bottom;html=1;verticalAlign=top;aspect=fixed;align=center;pointerEvents=1;shape=mxgraph.cisco19.server;fillColor=#005073;strokeColor=none;" parent="NO0hMIeCVV5FIhQQeRoq-27" vertex="1">
          <mxGeometry x="46" y="5" width="27.500000000000004" height="50" as="geometry" />
        </mxCell>
        <mxCell id="NO0hMIeCVV5FIhQQeRoq-24" value="" style="sketch=0;points=[[0.015,0.015,0],[0.985,0.015,0],[0.985,0.985,0],[0.015,0.985,0],[0.25,0,0],[0.5,0,0],[0.75,0,0],[1,0.25,0],[1,0.5,0],[1,0.75,0],[0.75,1,0],[0.5,1,0],[0.25,1,0],[0,0.75,0],[0,0.5,0],[0,0.25,0]];verticalLabelPosition=bottom;html=1;verticalAlign=top;aspect=fixed;align=center;pointerEvents=1;shape=mxgraph.cisco19.server;fillColor=#005073;strokeColor=none;" parent="NO0hMIeCVV5FIhQQeRoq-27" vertex="1">
          <mxGeometry x="86" y="5" width="27.500000000000004" height="50" as="geometry" />
        </mxCell>
        <mxCell id="NO0hMIeCVV5FIhQQeRoq-25" value="" style="sketch=0;points=[[0.015,0.015,0],[0.985,0.015,0],[0.985,0.985,0],[0.015,0.985,0],[0.25,0,0],[0.5,0,0],[0.75,0,0],[1,0.25,0],[1,0.5,0],[1,0.75,0],[0.75,1,0],[0.5,1,0],[0.25,1,0],[0,0.75,0],[0,0.5,0],[0,0.25,0]];verticalLabelPosition=bottom;html=1;verticalAlign=top;aspect=fixed;align=center;pointerEvents=1;shape=mxgraph.cisco19.server;fillColor=#005073;strokeColor=none;" parent="NO0hMIeCVV5FIhQQeRoq-27" vertex="1">
          <mxGeometry x="126" y="5" width="27.500000000000004" height="50" as="geometry" />
        </mxCell>
        <mxCell id="NO0hMIeCVV5FIhQQeRoq-31" style="edgeStyle=orthogonalEdgeStyle;shape=connector;rounded=0;orthogonalLoop=1;jettySize=auto;html=1;exitX=0.65;exitY=0;exitDx=0;exitDy=0;entryX=0.996;entryY=0.333;entryDx=0;entryDy=0;entryPerimeter=0;strokeColor=default;strokeWidth=3;align=center;verticalAlign=middle;fontFamily=Helvetica;fontSize=11;fontColor=default;labelBackgroundColor=default;endArrow=none;endFill=0;exitPerimeter=0;" parent="1" source="NO0hMIeCVV5FIhQQeRoq-26" target="lbnmV9Moz0TXLxYADeuH-9" edge="1">
          <mxGeometry relative="1" as="geometry">
            <Array as="points">
              <mxPoint x="474" y="314" />
            </Array>
          </mxGeometry>
        </mxCell>
        <mxCell id="NO0hMIeCVV5FIhQQeRoq-32" style="edgeStyle=orthogonalEdgeStyle;shape=connector;rounded=0;orthogonalLoop=1;jettySize=auto;html=1;exitX=0.4;exitY=0;exitDx=0;exitDy=0;entryX=0.996;entryY=0.556;entryDx=0;entryDy=0;entryPerimeter=0;strokeColor=default;strokeWidth=3;align=center;verticalAlign=middle;fontFamily=Helvetica;fontSize=11;fontColor=default;labelBackgroundColor=default;endArrow=none;endFill=0;exitPerimeter=0;" parent="1" source="NO0hMIeCVV5FIhQQeRoq-26" target="lbnmV9Moz0TXLxYADeuH-9" edge="1">
          <mxGeometry relative="1" as="geometry" />
        </mxCell>
        <mxCell id="NO0hMIeCVV5FIhQQeRoq-36" style="edgeStyle=orthogonalEdgeStyle;shape=connector;rounded=0;orthogonalLoop=1;jettySize=auto;html=1;entryX=0.999;entryY=0.118;entryDx=0;entryDy=0;entryPerimeter=0;strokeColor=default;strokeWidth=3;align=center;verticalAlign=middle;fontFamily=Helvetica;fontSize=11;fontColor=default;labelBackgroundColor=default;endArrow=none;endFill=0;exitX=0.9;exitY=0;exitDx=0;exitDy=0;exitPerimeter=0;" parent="1" target="lbnmV9Moz0TXLxYADeuH-9" edge="1" source="NO0hMIeCVV5FIhQQeRoq-26">
          <mxGeometry relative="1" as="geometry">
            <mxPoint x="528" y="377.25" as="sourcePoint" />
            <Array as="points">
              <mxPoint x="514" y="303" />
            </Array>
          </mxGeometry>
        </mxCell>
        <mxCell id="NO0hMIeCVV5FIhQQeRoq-46" style="edgeStyle=orthogonalEdgeStyle;shape=connector;rounded=0;orthogonalLoop=1;jettySize=auto;html=1;exitX=0.75;exitY=0;exitDx=0;exitDy=0;exitPerimeter=0;entryX=-0.002;entryY=0.918;entryDx=0;entryDy=0;entryPerimeter=0;strokeColor=default;strokeWidth=3;align=center;verticalAlign=middle;fontFamily=Helvetica;fontSize=11;fontColor=default;labelBackgroundColor=default;endArrow=none;endFill=0;" parent="1" source="lbnmV9Moz0TXLxYADeuH-9" target="NO0hMIeCVV5FIhQQeRoq-22" edge="1">
          <mxGeometry relative="1" as="geometry">
            <Array as="points">
              <mxPoint x="327" y="273.25" />
            </Array>
          </mxGeometry>
        </mxCell>
        <mxCell id="8GofJGXbrdM40KDC0A-a-19" value="10Gb Fiber" style="edgeLabel;html=1;align=center;verticalAlign=middle;resizable=0;points=[];fontFamily=Helvetica;fontSize=11;fontColor=default;labelBackgroundColor=default;" parent="NO0hMIeCVV5FIhQQeRoq-46" vertex="1" connectable="0">
          <mxGeometry x="0.1609" relative="1" as="geometry">
            <mxPoint as="offset" />
          </mxGeometry>
        </mxCell>
        <mxCell id="fddtgmEfxXLfXS1tYtdZ-1" style="edgeStyle=orthogonalEdgeStyle;rounded=0;orthogonalLoop=1;jettySize=auto;html=1;entryX=0.85;entryY=0;entryDx=0;entryDy=0;entryPerimeter=0;strokeWidth=3;endArrow=none;endFill=0;exitX=0.999;exitY=0.228;exitDx=0;exitDy=0;exitPerimeter=0;" parent="1" source="lbnmV9Moz0TXLxYADeuH-9" target="NO0hMIeCVV5FIhQQeRoq-26" edge="1">
          <mxGeometry relative="1" as="geometry">
            <mxPoint x="340" y="309.25" as="sourcePoint" />
          </mxGeometry>
        </mxCell>
        <mxCell id="fddtgmEfxXLfXS1tYtdZ-2" style="edgeStyle=orthogonalEdgeStyle;shape=connector;rounded=0;orthogonalLoop=1;jettySize=auto;html=1;exitX=0.996;exitY=0.446;exitDx=0;exitDy=0;exitPerimeter=0;strokeColor=default;strokeWidth=3;align=center;verticalAlign=middle;fontFamily=Helvetica;fontSize=11;fontColor=default;labelBackgroundColor=default;endArrow=none;endFill=0;entryX=0.6;entryY=0;entryDx=0;entryDy=0;entryPerimeter=0;" parent="1" source="lbnmV9Moz0TXLxYADeuH-9" edge="1" target="NO0hMIeCVV5FIhQQeRoq-26">
          <mxGeometry relative="1" as="geometry">
            <mxPoint x="470" y="377.25" as="targetPoint" />
          </mxGeometry>
        </mxCell>
        <mxCell id="fddtgmEfxXLfXS1tYtdZ-3" style="edgeStyle=orthogonalEdgeStyle;shape=connector;rounded=0;orthogonalLoop=1;jettySize=auto;html=1;exitX=0.996;exitY=0.666;exitDx=0;exitDy=0;exitPerimeter=0;entryX=0.35;entryY=0;entryDx=0;entryDy=0;entryPerimeter=0;strokeColor=default;strokeWidth=3;align=center;verticalAlign=middle;fontFamily=Helvetica;fontSize=11;fontColor=default;labelBackgroundColor=default;endArrow=none;endFill=0;" parent="1" source="lbnmV9Moz0TXLxYADeuH-9" target="NO0hMIeCVV5FIhQQeRoq-26" edge="1">
          <mxGeometry relative="1" as="geometry" />
        </mxCell>
        <mxCell id="fddtgmEfxXLfXS1tYtdZ-4" style="edgeStyle=orthogonalEdgeStyle;shape=connector;rounded=0;orthogonalLoop=1;jettySize=auto;html=1;exitX=0.15;exitY=0;exitDx=0;exitDy=0;entryX=0.996;entryY=0.779;entryDx=0;entryDy=0;entryPerimeter=0;strokeColor=default;strokeWidth=3;align=center;verticalAlign=middle;fontFamily=Helvetica;fontSize=11;fontColor=default;labelBackgroundColor=default;endArrow=none;endFill=0;exitPerimeter=0;" parent="1" source="NO0hMIeCVV5FIhQQeRoq-26" target="lbnmV9Moz0TXLxYADeuH-9" edge="1">
          <mxGeometry relative="1" as="geometry" />
        </mxCell>
        <mxCell id="fddtgmEfxXLfXS1tYtdZ-5" style="edgeStyle=orthogonalEdgeStyle;shape=connector;rounded=0;orthogonalLoop=1;jettySize=auto;html=1;exitX=0.1;exitY=0;exitDx=0;exitDy=0;entryX=0.996;entryY=0.894;entryDx=0;entryDy=0;entryPerimeter=0;strokeColor=default;strokeWidth=3;align=center;verticalAlign=middle;fontFamily=Helvetica;fontSize=11;fontColor=default;labelBackgroundColor=default;endArrow=none;endFill=0;exitPerimeter=0;" parent="1" source="NO0hMIeCVV5FIhQQeRoq-26" target="lbnmV9Moz0TXLxYADeuH-9" edge="1">
          <mxGeometry relative="1" as="geometry" />
        </mxCell>
        <mxCell id="8GofJGXbrdM40KDC0A-a-2" value="&lt;font style=&quot;font-size: 8px;&quot;&gt;4x20Gb DAC PortChannels (Ceph Backend)&lt;/font&gt;" style="text;html=1;align=center;verticalAlign=middle;whiteSpace=wrap;rounded=0;labelBackgroundColor=default;" parent="1" vertex="1">
          <mxGeometry x="370" y="344.75" width="170" height="30" as="geometry" />
        </mxCell>
        <mxCell id="8GofJGXbrdM40KDC0A-a-8" value="" style="group;labelPosition=center;verticalLabelPosition=bottom;align=center;verticalAlign=bottom;" parent="1" vertex="1" connectable="0">
          <mxGeometry x="390" y="497.25" width="120" height="60" as="geometry" />
        </mxCell>
        <mxCell id="8GofJGXbrdM40KDC0A-a-7" value="&lt;font style=&quot;font-size: 8px;&quot;&gt;&lt;b style=&quot;&quot;&gt;Prod Datacenter - Services&lt;br&gt;3x i5-4590T (24C, 24T, 48GB&lt;span style=&quot;background-color: transparent; color: light-dark(rgb(0, 0, 0), rgb(255, 255, 255));&quot;&gt;)&lt;/span&gt;&lt;/b&gt;&lt;/font&gt;" style="rounded=0;whiteSpace=wrap;html=1;verticalAlign=top;labelPosition=center;verticalLabelPosition=bottom;align=center;" parent="8GofJGXbrdM40KDC0A-a-8" vertex="1">
          <mxGeometry width="120" height="60" as="geometry" />
        </mxCell>
        <mxCell id="8GofJGXbrdM40KDC0A-a-4" value="" style="sketch=0;points=[[0.015,0.015,0],[0.985,0.015,0],[0.985,0.985,0],[0.015,0.985,0],[0.25,0,0],[0.5,0,0],[0.75,0,0],[1,0.25,0],[1,0.5,0],[1,0.75,0],[0.75,1,0],[0.5,1,0],[0.25,1,0],[0,0.75,0],[0,0.5,0],[0,0.25,0]];verticalLabelPosition=bottom;html=1;verticalAlign=top;aspect=fixed;align=center;pointerEvents=1;shape=mxgraph.cisco19.server;fillColor=#005073;strokeColor=none;" parent="8GofJGXbrdM40KDC0A-a-8" vertex="1">
          <mxGeometry x="6" y="5" width="27.500000000000004" height="50" as="geometry" />
        </mxCell>
        <mxCell id="8GofJGXbrdM40KDC0A-a-5" value="" style="sketch=0;points=[[0.015,0.015,0],[0.985,0.015,0],[0.985,0.985,0],[0.015,0.985,0],[0.25,0,0],[0.5,0,0],[0.75,0,0],[1,0.25,0],[1,0.5,0],[1,0.75,0],[0.75,1,0],[0.5,1,0],[0.25,1,0],[0,0.75,0],[0,0.5,0],[0,0.25,0]];verticalLabelPosition=bottom;html=1;verticalAlign=top;aspect=fixed;align=center;pointerEvents=1;shape=mxgraph.cisco19.server;fillColor=#005073;strokeColor=none;" parent="8GofJGXbrdM40KDC0A-a-8" vertex="1">
          <mxGeometry x="46" y="5" width="27.500000000000004" height="50" as="geometry" />
        </mxCell>
        <mxCell id="8GofJGXbrdM40KDC0A-a-6" value="" style="sketch=0;points=[[0.015,0.015,0],[0.985,0.015,0],[0.985,0.985,0],[0.015,0.985,0],[0.25,0,0],[0.5,0,0],[0.75,0,0],[1,0.25,0],[1,0.5,0],[1,0.75,0],[0.75,1,0],[0.5,1,0],[0.25,1,0],[0,0.75,0],[0,0.5,0],[0,0.25,0]];verticalLabelPosition=bottom;html=1;verticalAlign=top;aspect=fixed;align=center;pointerEvents=1;shape=mxgraph.cisco19.server;fillColor=#005073;strokeColor=none;" parent="8GofJGXbrdM40KDC0A-a-8" vertex="1">
          <mxGeometry x="86" y="5" width="27.500000000000004" height="50" as="geometry" />
        </mxCell>
        <mxCell id="8GofJGXbrdM40KDC0A-a-11" style="edgeStyle=orthogonalEdgeStyle;shape=connector;rounded=0;orthogonalLoop=1;jettySize=auto;html=1;exitX=0.25;exitY=0;exitDx=0;exitDy=0;entryX=0.996;entryY=0.615;entryDx=0;entryDy=0;entryPerimeter=0;strokeColor=default;strokeWidth=3;align=center;verticalAlign=middle;fontFamily=Helvetica;fontSize=11;fontColor=default;labelBackgroundColor=default;endArrow=none;endFill=0;" parent="1" source="8GofJGXbrdM40KDC0A-a-7" target="lbnmV9Moz0TXLxYADeuH-22" edge="1">
          <mxGeometry relative="1" as="geometry">
            <Array as="points">
              <mxPoint x="420" y="487.25" />
            </Array>
          </mxGeometry>
        </mxCell>
        <mxCell id="8GofJGXbrdM40KDC0A-a-13" style="edgeStyle=orthogonalEdgeStyle;shape=connector;rounded=0;orthogonalLoop=1;jettySize=auto;html=1;exitX=0.5;exitY=0;exitDx=0;exitDy=0;entryX=1.003;entryY=0.575;entryDx=0;entryDy=0;entryPerimeter=0;strokeColor=default;strokeWidth=3;align=center;verticalAlign=middle;fontFamily=Helvetica;fontSize=11;fontColor=default;labelBackgroundColor=default;endArrow=none;endFill=0;" parent="1" source="8GofJGXbrdM40KDC0A-a-7" target="lbnmV9Moz0TXLxYADeuH-22" edge="1">
          <mxGeometry relative="1" as="geometry">
            <Array as="points">
              <mxPoint x="430" y="482.25" />
              <mxPoint x="325" y="482.25" />
            </Array>
          </mxGeometry>
        </mxCell>
        <mxCell id="8GofJGXbrdM40KDC0A-a-14" style="edgeStyle=orthogonalEdgeStyle;shape=connector;rounded=0;orthogonalLoop=1;jettySize=auto;html=1;exitX=0.75;exitY=0;exitDx=0;exitDy=0;entryX=1;entryY=0.536;entryDx=0;entryDy=0;entryPerimeter=0;strokeColor=default;strokeWidth=3;align=center;verticalAlign=middle;fontFamily=Helvetica;fontSize=11;fontColor=default;labelBackgroundColor=default;endArrow=none;endFill=0;" parent="1" source="8GofJGXbrdM40KDC0A-a-7" target="lbnmV9Moz0TXLxYADeuH-22" edge="1">
          <mxGeometry relative="1" as="geometry" />
        </mxCell>
        <mxCell id="8GofJGXbrdM40KDC0A-a-20" value="3x1Gb Copper" style="text;html=1;align=center;verticalAlign=middle;whiteSpace=wrap;rounded=0;fontFamily=Helvetica;fontSize=8;fontColor=default;labelBackgroundColor=default;" parent="1" vertex="1">
          <mxGeometry x="312" y="476.25" width="85" height="10" as="geometry" />
        </mxCell>
        <mxCell id="8GofJGXbrdM40KDC0A-a-23" value="Engineer Workstation" style="sketch=0;pointerEvents=1;shadow=0;dashed=0;html=1;strokeColor=none;fillColor=light-dark(#005073,#505050);labelPosition=center;verticalLabelPosition=bottom;verticalAlign=top;outlineConnect=0;align=center;shape=mxgraph.office.devices.workstation;fontFamily=Helvetica;fontSize=11;fontColor=default;labelBackgroundColor=default;whiteSpace=wrap;fontStyle=1" parent="1" vertex="1">
          <mxGeometry x="288.5" y="616.25" width="53" height="56" as="geometry" />
        </mxCell>
        <mxCell id="8GofJGXbrdM40KDC0A-a-27" value="Creative Workstation" style="sketch=0;pointerEvents=1;shadow=0;dashed=0;html=1;strokeColor=none;fillColor=light-dark(#005073,#505050);labelPosition=center;verticalLabelPosition=bottom;verticalAlign=top;outlineConnect=0;align=center;shape=mxgraph.office.devices.workstation;fontFamily=Helvetica;fontSize=11;fontColor=default;labelBackgroundColor=default;whiteSpace=wrap;fontStyle=1" parent="1" vertex="1">
          <mxGeometry x="220" y="616.25" width="53" height="56" as="geometry" />
        </mxCell>
        <mxCell id="8GofJGXbrdM40KDC0A-a-29" value="Work Laptop" style="points=[[0.13,0.02,0],[0.5,0,0],[0.87,0.02,0],[0.885,0.4,0],[0.985,0.985,0],[0.5,1,0],[0.015,0.985,0],[0.115,0.4,0]];verticalLabelPosition=bottom;sketch=0;html=1;verticalAlign=top;aspect=fixed;align=center;pointerEvents=1;shape=mxgraph.cisco19.laptop;fillColor=#005073;strokeColor=none;fontFamily=Helvetica;fontSize=11;fontColor=default;labelBackgroundColor=default;fontStyle=1" parent="1" vertex="1">
          <mxGeometry x="360" y="637.25" width="50" height="35" as="geometry" />
        </mxCell>
        <mxCell id="8GofJGXbrdM40KDC0A-a-30" value="Family VR PC" style="fontColor=#000000;verticalAlign=top;verticalLabelPosition=bottom;labelPosition=center;align=center;html=1;outlineConnect=0;fillColor=light-dark(#005073,#CCCCCC);strokeColor=light-dark(#005073,#6881B3);gradientColor=none;gradientDirection=north;strokeWidth=2;shape=mxgraph.networks.desktop_pc;fontFamily=Helvetica;fontSize=11;labelBackgroundColor=default;fontStyle=1" parent="1" vertex="1">
          <mxGeometry x="160" y="612.25" width="30" height="60" as="geometry" />
        </mxCell>
        <mxCell id="8GofJGXbrdM40KDC0A-a-31" value="" style="shape=mxgraph.networks2.icon;aspect=fixed;fillColor=#EDEDED;strokeColor=#000000;gradientColor=#5B6163;network2IconShadow=1;network2bgFillColor=none;labelPosition=center;verticalLabelPosition=bottom;align=center;verticalAlign=top;network2Icon=mxgraph.networks2.vr;network2IconYOffset=-0.015;network2IconW=1;network2IconH=0.45;fontFamily=Helvetica;fontSize=11;fontColor=default;labelBackgroundColor=default;" parent="1" vertex="1">
          <mxGeometry x="163.89" y="627.25" width="22.22" height="10" as="geometry" />
        </mxCell>
        <mxCell id="h3bOcEDEYmljnP3_BpeO-5" value="TV" style="sketch=0;pointerEvents=1;shadow=0;dashed=0;html=1;strokeColor=none;fillColor=#505050;labelPosition=center;verticalLabelPosition=bottom;verticalAlign=top;outlineConnect=0;align=center;shape=mxgraph.office.devices.tv;fontFamily=Helvetica;fontSize=11;fontColor=default;labelBackgroundColor=default;fontStyle=1" parent="1" vertex="1">
          <mxGeometry x="80" y="627.25" width="59" height="45" as="geometry" />
        </mxCell>
        <mxCell id="h3bOcEDEYmljnP3_BpeO-8" style="edgeStyle=orthogonalEdgeStyle;shape=connector;rounded=0;orthogonalLoop=1;jettySize=auto;html=1;exitX=1;exitY=0.703;exitDx=0;exitDy=0;entryX=0.324;entryY=0.003;entryDx=0;entryDy=0;entryPerimeter=0;strokeColor=default;strokeWidth=3;align=center;verticalAlign=middle;fontFamily=Helvetica;fontSize=11;fontColor=default;labelBackgroundColor=default;endArrow=none;endFill=0;exitPerimeter=0;" parent="1" source="lbnmV9Moz0TXLxYADeuH-22" target="8GofJGXbrdM40KDC0A-a-29" edge="1">
          <mxGeometry relative="1" as="geometry" />
        </mxCell>
        <mxCell id="D5LrwT91D5c0MHAF4rOE-100" value="&lt;font style=&quot;font-size: 8px;&quot;&gt;1Gb Copper&lt;/font&gt;" style="edgeLabel;html=1;align=center;verticalAlign=middle;resizable=0;points=[];fontFamily=Helvetica;fontSize=11;fontColor=default;labelBackgroundColor=default;" parent="h3bOcEDEYmljnP3_BpeO-8" vertex="1" connectable="0">
          <mxGeometry x="0.4533" relative="1" as="geometry">
            <mxPoint y="25" as="offset" />
          </mxGeometry>
        </mxCell>
        <mxCell id="OCqcyEJDrD8Cijfm78Pi-5" style="edgeStyle=orthogonalEdgeStyle;shape=connector;rounded=0;orthogonalLoop=1;jettySize=auto;html=1;exitX=1.002;exitY=0.795;exitDx=0;exitDy=0;entryX=0.262;entryY=0.001;entryDx=0;entryDy=0;entryPerimeter=0;strokeColor=default;strokeWidth=3;align=center;verticalAlign=middle;fontFamily=Helvetica;fontSize=11;fontColor=default;labelBackgroundColor=default;endArrow=none;endFill=0;exitPerimeter=0;" parent="1" source="lbnmV9Moz0TXLxYADeuH-22" target="8GofJGXbrdM40KDC0A-a-27" edge="1">
          <mxGeometry relative="1" as="geometry">
            <Array as="points">
              <mxPoint x="290" y="510.25" />
              <mxPoint x="290" y="577.25" />
              <mxPoint x="234" y="577.25" />
            </Array>
          </mxGeometry>
        </mxCell>
        <mxCell id="D5LrwT91D5c0MHAF4rOE-104" value="&lt;font style=&quot;font-size: 8px;&quot;&gt;10Gb Copper&lt;/font&gt;" style="edgeLabel;html=1;align=center;verticalAlign=middle;resizable=0;points=[];fontFamily=Helvetica;fontSize=11;fontColor=default;labelBackgroundColor=default;" parent="OCqcyEJDrD8Cijfm78Pi-5" vertex="1" connectable="0">
          <mxGeometry x="0.8076" relative="1" as="geometry">
            <mxPoint y="-2" as="offset" />
          </mxGeometry>
        </mxCell>
        <mxCell id="OCqcyEJDrD8Cijfm78Pi-6" style="edgeStyle=orthogonalEdgeStyle;shape=connector;rounded=0;orthogonalLoop=1;jettySize=auto;html=1;exitX=0;exitY=0.75;exitDx=0;exitDy=0;entryX=0.5;entryY=0;entryDx=0;entryDy=0;entryPerimeter=0;strokeColor=default;strokeWidth=3;align=center;verticalAlign=middle;fontFamily=Helvetica;fontSize=11;fontColor=default;labelBackgroundColor=default;endArrow=none;endFill=0;" parent="1" source="NO0hMIeCVV5FIhQQeRoq-17" target="8GofJGXbrdM40KDC0A-a-30" edge="1">
          <mxGeometry relative="1" as="geometry">
            <Array as="points">
              <mxPoint x="130" y="505.25" />
              <mxPoint x="130" y="577.25" />
              <mxPoint x="175" y="577.25" />
            </Array>
          </mxGeometry>
        </mxCell>
        <mxCell id="D5LrwT91D5c0MHAF4rOE-102" value="&lt;font style=&quot;font-size: 8px;&quot;&gt;1Gb Copper&lt;/font&gt;" style="edgeLabel;html=1;align=center;verticalAlign=middle;resizable=0;points=[];fontFamily=Helvetica;fontSize=11;fontColor=default;labelBackgroundColor=default;" parent="OCqcyEJDrD8Cijfm78Pi-6" vertex="1" connectable="0">
          <mxGeometry x="0.8171" y="-2" relative="1" as="geometry">
            <mxPoint x="2" y="1" as="offset" />
          </mxGeometry>
        </mxCell>
        <mxCell id="OCqcyEJDrD8Cijfm78Pi-8" value="Devices" style="html=1;verticalLabelPosition=bottom;align=center;labelBackgroundColor=#ffffff;verticalAlign=top;strokeWidth=2;strokeColor=#0080F0;shadow=0;dashed=0;shape=mxgraph.ios7.icons.wifi;pointerEvents=1;fontFamily=Helvetica;fontSize=11;fontColor=default;points=[[0.1,0,0,0,0],[0.5,0,0,0,-2],[0.9,0,0,0,0]];" parent="1" vertex="1">
          <mxGeometry x="300.15" y="167.25" width="29.7" height="21" as="geometry" />
        </mxCell>
        <mxCell id="OCqcyEJDrD8Cijfm78Pi-9" value="VPN" style="html=1;verticalLabelPosition=bottom;align=center;labelBackgroundColor=#ffffff;verticalAlign=top;strokeWidth=2;strokeColor=#0080F0;shadow=0;dashed=0;shape=mxgraph.ios7.icons.wifi;pointerEvents=1;fontFamily=Helvetica;fontSize=11;fontColor=default;" parent="1" vertex="1">
          <mxGeometry x="339.65" y="177.25" width="29.7" height="21" as="geometry" />
        </mxCell>
        <mxCell id="OCqcyEJDrD8Cijfm78Pi-20" style="rounded=0;orthogonalLoop=1;jettySize=auto;html=1;exitX=0.1;exitY=0.14;exitDx=0;exitDy=0;exitPerimeter=0;strokeColor=default;strokeWidth=2;align=center;verticalAlign=middle;fontFamily=Helvetica;fontSize=11;fontColor=default;labelBackgroundColor=default;endArrow=none;endFill=0;shape=filledEdge;startArrow=none;startFill=0;dashed=1;dashPattern=1 1;curved=0;entryX=0.866;entryY=0.558;entryDx=0;entryDy=0;entryPerimeter=0;" parent="1" source="OCqcyEJDrD8Cijfm78Pi-10" target="OCqcyEJDrD8Cijfm78Pi-14" edge="1">
          <mxGeometry relative="1" as="geometry">
            <mxPoint x="220" y="167.31" as="targetPoint" />
            <mxPoint x="242.97000000000003" y="167.25" as="sourcePoint" />
          </mxGeometry>
        </mxCell>
        <mxCell id="OCqcyEJDrD8Cijfm78Pi-10" value="IoT" style="html=1;verticalLabelPosition=bottom;align=center;labelBackgroundColor=#ffffff;verticalAlign=top;strokeWidth=2;strokeColor=#0080F0;shadow=0;dashed=0;shape=mxgraph.ios7.icons.wifi;pointerEvents=1;fontFamily=Helvetica;fontSize=11;fontColor=default;points=[[0.1,0.14,0,0,0],[0.1,0.5,0,0,0]];" parent="1" vertex="1">
          <mxGeometry x="260" y="177.25" width="29.7" height="21" as="geometry" />
        </mxCell>
        <mxCell id="OCqcyEJDrD8Cijfm78Pi-14" value="" style="html=1;verticalLabelPosition=bottom;align=center;labelBackgroundColor=#ffffff;verticalAlign=top;strokeWidth=2;strokeColor=#0080F0;shadow=0;dashed=0;shape=mxgraph.ios7.icons.lightbulb;fontFamily=Helvetica;fontSize=11;fontColor=default;" parent="1" vertex="1">
          <mxGeometry x="190" y="147.55" width="22.8" height="29.7" as="geometry" />
        </mxCell>
        <mxCell id="OCqcyEJDrD8Cijfm78Pi-19" value="" style="html=1;verticalLabelPosition=bottom;align=center;labelBackgroundColor=#ffffff;verticalAlign=top;strokeWidth=2;strokeColor=#0080F0;shadow=0;dashed=0;shape=mxgraph.ios7.icons.flash;fontFamily=Helvetica;fontSize=11;fontColor=default;" parent="1" vertex="1">
          <mxGeometry x="192.4" y="187.25" width="18" height="30" as="geometry" />
        </mxCell>
        <mxCell id="OCqcyEJDrD8Cijfm78Pi-22" style="edgeStyle=none;shape=filledEdge;curved=0;rounded=0;orthogonalLoop=1;jettySize=auto;html=1;exitX=0.1;exitY=0.5;exitDx=0;exitDy=0;exitPerimeter=0;entryX=0.71;entryY=0.426;entryDx=0;entryDy=0;entryPerimeter=0;dashed=1;dashPattern=1 1;strokeColor=default;strokeWidth=2;align=center;verticalAlign=middle;fontFamily=Helvetica;fontSize=11;fontColor=default;labelBackgroundColor=default;startArrow=none;startFill=0;endArrow=none;endFill=0;" parent="1" source="OCqcyEJDrD8Cijfm78Pi-10" target="OCqcyEJDrD8Cijfm78Pi-19" edge="1">
          <mxGeometry relative="1" as="geometry" />
        </mxCell>
        <mxCell id="OCqcyEJDrD8Cijfm78Pi-23" value="" style="html=1;verticalLabelPosition=bottom;align=center;labelBackgroundColor=#ffffff;verticalAlign=top;strokeWidth=2;strokeColor=#0080F0;shadow=0;dashed=0;shape=mxgraph.ios7.icons.smartphone;fontFamily=Helvetica;fontSize=11;fontColor=default;" parent="1" vertex="1">
          <mxGeometry x="262" y="92.75" width="18" height="30" as="geometry" />
        </mxCell>
        <mxCell id="OCqcyEJDrD8Cijfm78Pi-28" value="" style="html=1;verticalLabelPosition=bottom;align=center;labelBackgroundColor=#ffffff;verticalAlign=top;strokeWidth=2;strokeColor=#0080F0;shadow=0;dashed=0;shape=mxgraph.ios7.icons.printer;fontFamily=Helvetica;fontSize=11;fontColor=default;" parent="1" vertex="1">
          <mxGeometry x="350" y="97.25" width="30" height="25.5" as="geometry" />
        </mxCell>
        <mxCell id="OCqcyEJDrD8Cijfm78Pi-29" value="" style="verticalLabelPosition=bottom;html=1;verticalAlign=top;align=center;strokeColor=none;fillColor=light-dark(#0080f0, #0089b6);shape=mxgraph.azure.laptop;pointerEvents=1;fontFamily=Helvetica;fontSize=11;fontColor=default;labelBackgroundColor=default;" parent="1" vertex="1">
          <mxGeometry x="290" y="80" width="50" height="30" as="geometry" />
        </mxCell>
        <mxCell id="OCqcyEJDrD8Cijfm78Pi-32" style="edgeStyle=none;shape=filledEdge;curved=0;rounded=0;orthogonalLoop=1;jettySize=auto;html=1;exitX=0.1;exitY=0;exitDx=0;exitDy=0;exitPerimeter=0;entryX=0.91;entryY=1.024;entryDx=0;entryDy=0;entryPerimeter=0;dashed=1;dashPattern=1 1;strokeColor=default;strokeWidth=2;align=center;verticalAlign=middle;fontFamily=Helvetica;fontSize=11;fontColor=default;labelBackgroundColor=default;startArrow=none;startFill=0;endArrow=none;endFill=0;" parent="1" source="OCqcyEJDrD8Cijfm78Pi-8" target="OCqcyEJDrD8Cijfm78Pi-23" edge="1">
          <mxGeometry relative="1" as="geometry" />
        </mxCell>
        <mxCell id="OCqcyEJDrD8Cijfm78Pi-33" style="edgeStyle=none;shape=filledEdge;curved=0;rounded=0;orthogonalLoop=1;jettySize=auto;html=1;exitX=0.5;exitY=0;exitDx=0;exitDy=-2;exitPerimeter=0;entryX=0.5;entryY=1;entryDx=0;entryDy=0;entryPerimeter=0;dashed=1;dashPattern=1 1;strokeColor=default;strokeWidth=2;align=center;verticalAlign=middle;fontFamily=Helvetica;fontSize=11;fontColor=default;labelBackgroundColor=default;startArrow=none;startFill=0;endArrow=none;endFill=0;" parent="1" source="OCqcyEJDrD8Cijfm78Pi-8" target="OCqcyEJDrD8Cijfm78Pi-29" edge="1">
          <mxGeometry relative="1" as="geometry" />
        </mxCell>
        <mxCell id="OCqcyEJDrD8Cijfm78Pi-34" style="edgeStyle=none;shape=filledEdge;curved=0;rounded=0;orthogonalLoop=1;jettySize=auto;html=1;exitX=0.9;exitY=0;exitDx=0;exitDy=0;exitPerimeter=0;entryX=0;entryY=0.784;entryDx=0;entryDy=0;entryPerimeter=0;dashed=1;dashPattern=1 1;strokeColor=default;strokeWidth=2;align=center;verticalAlign=middle;fontFamily=Helvetica;fontSize=11;fontColor=default;labelBackgroundColor=default;startArrow=none;startFill=0;endArrow=none;endFill=0;" parent="1" source="OCqcyEJDrD8Cijfm78Pi-8" target="OCqcyEJDrD8Cijfm78Pi-28" edge="1">
          <mxGeometry relative="1" as="geometry" />
        </mxCell>
        <mxCell id="D5LrwT91D5c0MHAF4rOE-20" style="rounded=0;orthogonalLoop=1;jettySize=auto;html=1;exitX=0;exitY=0;exitDx=0;exitDy=0;entryX=1;entryY=0;entryDx=0;entryDy=0;dashed=1;endArrow=none;endFill=0;" parent="1" source="D5LrwT91D5c0MHAF4rOE-7" target="NO0hMIeCVV5FIhQQeRoq-26" edge="1">
          <mxGeometry relative="1" as="geometry" />
        </mxCell>
        <mxCell id="D5LrwT91D5c0MHAF4rOE-23" style="edgeStyle=none;shape=connector;rounded=0;orthogonalLoop=1;jettySize=auto;html=1;exitX=0;exitY=1;exitDx=0;exitDy=0;entryX=1;entryY=1;entryDx=0;entryDy=0;dashed=1;strokeColor=default;align=center;verticalAlign=middle;fontFamily=Helvetica;fontSize=11;fontColor=default;labelBackgroundColor=default;endArrow=none;endFill=0;" parent="1" source="D5LrwT91D5c0MHAF4rOE-7" target="NO0hMIeCVV5FIhQQeRoq-26" edge="1">
          <mxGeometry relative="1" as="geometry" />
        </mxCell>
        <mxCell id="D5LrwT91D5c0MHAF4rOE-7" value="&lt;b&gt;Proxmox&lt;/b&gt;" style="swimlane;fontStyle=0;childLayout=stackLayout;horizontal=1;startSize=26;fillColor=none;horizontalStack=0;resizeParent=1;resizeParentMax=0;resizeLast=0;collapsible=1;marginBottom=0;html=1;container=0;" parent="1" vertex="1">
          <mxGeometry x="580" y="347.25" width="170" height="104" as="geometry" />
        </mxCell>
        <mxCell id="D5LrwT91D5c0MHAF4rOE-8" value="Cisco Modeling Labs Cluster" style="text;strokeColor=none;fillColor=none;align=left;verticalAlign=top;spacingLeft=4;spacingRight=4;overflow=hidden;rotatable=0;points=[[0,0.5],[1,0.5]];portConstraint=eastwest;whiteSpace=wrap;html=1;" parent="D5LrwT91D5c0MHAF4rOE-7" vertex="1">
          <mxGeometry y="26" width="170" height="26" as="geometry" />
        </mxCell>
        <mxCell id="D5LrwT91D5c0MHAF4rOE-9" value="Ceph File System" style="text;strokeColor=none;fillColor=none;align=left;verticalAlign=top;spacingLeft=4;spacingRight=4;overflow=hidden;rotatable=0;points=[[0,0.5],[1,0.5]];portConstraint=eastwest;whiteSpace=wrap;html=1;" parent="D5LrwT91D5c0MHAF4rOE-7" vertex="1">
          <mxGeometry y="52" width="170" height="26" as="geometry" />
        </mxCell>
        <mxCell id="D5LrwT91D5c0MHAF4rOE-10" value="Experimental VMs" style="text;strokeColor=none;fillColor=none;align=left;verticalAlign=top;spacingLeft=4;spacingRight=4;overflow=hidden;rotatable=0;points=[[0,0.5],[1,0.5]];portConstraint=eastwest;whiteSpace=wrap;html=1;" parent="D5LrwT91D5c0MHAF4rOE-7" vertex="1">
          <mxGeometry y="78" width="170" height="26" as="geometry" />
        </mxCell>
        <mxCell id="D5LrwT91D5c0MHAF4rOE-24" value="Proxmox" style="swimlane;childLayout=stackLayout;resizeParent=1;resizeParentMax=0;startSize=20;html=1;fontFamily=Helvetica;fontSize=11;fontColor=default;labelBackgroundColor=default;" parent="1" vertex="1">
          <mxGeometry x="580" y="486.25" width="240" height="180" as="geometry" />
        </mxCell>
        <mxCell id="D5LrwT91D5c0MHAF4rOE-25" value="Docker VM 1" style="swimlane;startSize=20;html=1;fontFamily=Helvetica;fontSize=11;fontColor=default;labelBackgroundColor=default;" parent="D5LrwT91D5c0MHAF4rOE-24" vertex="1">
          <mxGeometry y="20" width="120" height="160" as="geometry" />
        </mxCell>
        <mxCell id="D5LrwT91D5c0MHAF4rOE-39" value="" style="shape=table;startSize=0;container=1;collapsible=0;childLayout=tableLayout;fontSize=11;fillColor=none;strokeColor=none;fontFamily=Helvetica;fontColor=default;labelBackgroundColor=default;" parent="D5LrwT91D5c0MHAF4rOE-25" vertex="1">
          <mxGeometry y="26" width="120" height="130" as="geometry" />
        </mxCell>
        <mxCell id="D5LrwT91D5c0MHAF4rOE-40" value="" style="shape=tableRow;horizontal=0;startSize=0;swimlaneHead=0;swimlaneBody=0;strokeColor=inherit;top=0;left=0;bottom=0;right=0;collapsible=0;dropTarget=0;fillColor=none;points=[[0,0.5],[1,0.5]];portConstraint=eastwest;fontSize=16;fontFamily=Helvetica;fontColor=default;labelBackgroundColor=default;" parent="D5LrwT91D5c0MHAF4rOE-39" vertex="1">
          <mxGeometry width="120" height="26" as="geometry" />
        </mxCell>
        <mxCell id="D5LrwT91D5c0MHAF4rOE-41" value="Portainer" style="shape=partialRectangle;html=1;whiteSpace=wrap;connectable=0;strokeColor=inherit;overflow=hidden;fillColor=none;top=0;left=0;bottom=0;right=0;pointerEvents=1;fontSize=12;align=left;spacingLeft=5;fontFamily=Helvetica;fontColor=default;labelBackgroundColor=default;" parent="D5LrwT91D5c0MHAF4rOE-40" vertex="1">
          <mxGeometry width="120" height="26" as="geometry">
            <mxRectangle width="120" height="26" as="alternateBounds" />
          </mxGeometry>
        </mxCell>
        <mxCell id="D5LrwT91D5c0MHAF4rOE-42" value="" style="shape=tableRow;horizontal=0;startSize=0;swimlaneHead=0;swimlaneBody=0;strokeColor=inherit;top=0;left=0;bottom=0;right=0;collapsible=0;dropTarget=0;fillColor=none;points=[[0,0.5],[1,0.5]];portConstraint=eastwest;fontSize=16;fontFamily=Helvetica;fontColor=default;labelBackgroundColor=default;" parent="D5LrwT91D5c0MHAF4rOE-39" vertex="1">
          <mxGeometry y="26" width="120" height="26" as="geometry" />
        </mxCell>
        <mxCell id="D5LrwT91D5c0MHAF4rOE-43" value="PiHole Unbound 1" style="shape=partialRectangle;html=1;whiteSpace=wrap;connectable=0;strokeColor=inherit;overflow=hidden;fillColor=none;top=0;left=0;bottom=0;right=0;pointerEvents=1;fontSize=12;align=left;spacingLeft=5;fontFamily=Helvetica;fontColor=default;labelBackgroundColor=default;" parent="D5LrwT91D5c0MHAF4rOE-42" vertex="1">
          <mxGeometry width="120" height="26" as="geometry">
            <mxRectangle width="120" height="26" as="alternateBounds" />
          </mxGeometry>
        </mxCell>
        <mxCell id="D5LrwT91D5c0MHAF4rOE-48" value="" style="shape=tableRow;horizontal=0;startSize=0;swimlaneHead=0;swimlaneBody=0;strokeColor=inherit;top=0;left=0;bottom=0;right=0;collapsible=0;dropTarget=0;fillColor=none;points=[[0,0.5],[1,0.5]];portConstraint=eastwest;fontSize=16;fontFamily=Helvetica;fontColor=default;labelBackgroundColor=default;" parent="D5LrwT91D5c0MHAF4rOE-39" vertex="1">
          <mxGeometry y="52" width="120" height="26" as="geometry" />
        </mxCell>
        <mxCell id="D5LrwT91D5c0MHAF4rOE-49" value="Nebula Sync" style="shape=partialRectangle;html=1;whiteSpace=wrap;connectable=0;strokeColor=inherit;overflow=hidden;fillColor=none;top=0;left=0;bottom=0;right=0;pointerEvents=1;fontSize=12;align=left;spacingLeft=5;fontFamily=Helvetica;fontColor=default;labelBackgroundColor=default;" parent="D5LrwT91D5c0MHAF4rOE-48" vertex="1">
          <mxGeometry width="120" height="26" as="geometry">
            <mxRectangle width="120" height="26" as="alternateBounds" />
          </mxGeometry>
        </mxCell>
        <mxCell id="D5LrwT91D5c0MHAF4rOE-44" value="" style="shape=tableRow;horizontal=0;startSize=0;swimlaneHead=0;swimlaneBody=0;strokeColor=inherit;top=0;left=0;bottom=0;right=0;collapsible=0;dropTarget=0;fillColor=none;points=[[0,0.5],[1,0.5]];portConstraint=eastwest;fontSize=16;fontFamily=Helvetica;fontColor=default;labelBackgroundColor=default;" parent="D5LrwT91D5c0MHAF4rOE-39" vertex="1">
          <mxGeometry y="78" width="120" height="26" as="geometry" />
        </mxCell>
        <mxCell id="D5LrwT91D5c0MHAF4rOE-45" value="WLC" style="shape=partialRectangle;html=1;whiteSpace=wrap;connectable=0;strokeColor=inherit;overflow=hidden;fillColor=none;top=0;left=0;bottom=0;right=0;pointerEvents=1;fontSize=12;align=left;spacingLeft=5;fontFamily=Helvetica;fontColor=default;labelBackgroundColor=default;" parent="D5LrwT91D5c0MHAF4rOE-44" vertex="1">
          <mxGeometry width="120" height="26" as="geometry">
            <mxRectangle width="120" height="26" as="alternateBounds" />
          </mxGeometry>
        </mxCell>
        <mxCell id="D5LrwT91D5c0MHAF4rOE-61" value="" style="shape=tableRow;horizontal=0;startSize=0;swimlaneHead=0;swimlaneBody=0;strokeColor=inherit;top=0;left=0;bottom=0;right=0;collapsible=0;dropTarget=0;fillColor=none;points=[[0,0.5],[1,0.5]];portConstraint=eastwest;fontSize=16;fontFamily=Helvetica;fontColor=default;labelBackgroundColor=default;" parent="D5LrwT91D5c0MHAF4rOE-39" vertex="1">
          <mxGeometry y="104" width="120" height="26" as="geometry" />
        </mxCell>
        <mxCell id="D5LrwT91D5c0MHAF4rOE-62" value="Wiki.js" style="shape=partialRectangle;html=1;whiteSpace=wrap;connectable=0;strokeColor=inherit;overflow=hidden;fillColor=none;top=0;left=0;bottom=0;right=0;pointerEvents=1;fontSize=12;align=left;spacingLeft=5;fontFamily=Helvetica;fontColor=default;labelBackgroundColor=default;" parent="D5LrwT91D5c0MHAF4rOE-61" vertex="1">
          <mxGeometry width="120" height="26" as="geometry">
            <mxRectangle width="120" height="26" as="alternateBounds" />
          </mxGeometry>
        </mxCell>
        <mxCell id="D5LrwT91D5c0MHAF4rOE-26" value="Docker VM 2" style="swimlane;startSize=20;html=1;fontFamily=Helvetica;fontSize=11;fontColor=default;labelBackgroundColor=default;" parent="D5LrwT91D5c0MHAF4rOE-24" vertex="1">
          <mxGeometry x="120" y="20" width="120" height="160" as="geometry" />
        </mxCell>
        <mxCell id="D5LrwT91D5c0MHAF4rOE-63" value="" style="shape=table;startSize=0;container=1;collapsible=0;childLayout=tableLayout;fontSize=11;fillColor=none;strokeColor=none;fontFamily=Helvetica;fontColor=default;labelBackgroundColor=default;" parent="D5LrwT91D5c0MHAF4rOE-26" vertex="1">
          <mxGeometry y="26" width="120" height="104" as="geometry" />
        </mxCell>
        <mxCell id="D5LrwT91D5c0MHAF4rOE-64" value="" style="shape=tableRow;horizontal=0;startSize=0;swimlaneHead=0;swimlaneBody=0;strokeColor=inherit;top=0;left=0;bottom=0;right=0;collapsible=0;dropTarget=0;fillColor=none;points=[[0,0.5],[1,0.5]];portConstraint=eastwest;fontSize=16;fontFamily=Helvetica;fontColor=default;labelBackgroundColor=default;" parent="D5LrwT91D5c0MHAF4rOE-63" vertex="1">
          <mxGeometry width="120" height="27" as="geometry" />
        </mxCell>
        <mxCell id="D5LrwT91D5c0MHAF4rOE-65" value="Portainer" style="shape=partialRectangle;html=1;whiteSpace=wrap;connectable=0;strokeColor=inherit;overflow=hidden;fillColor=none;top=0;left=0;bottom=0;right=0;pointerEvents=1;fontSize=12;align=left;spacingLeft=5;fontFamily=Helvetica;fontColor=default;labelBackgroundColor=default;" parent="D5LrwT91D5c0MHAF4rOE-64" vertex="1">
          <mxGeometry width="120" height="27" as="geometry">
            <mxRectangle width="120" height="27" as="alternateBounds" />
          </mxGeometry>
        </mxCell>
        <mxCell id="D5LrwT91D5c0MHAF4rOE-66" value="" style="shape=tableRow;horizontal=0;startSize=0;swimlaneHead=0;swimlaneBody=0;strokeColor=inherit;top=0;left=0;bottom=0;right=0;collapsible=0;dropTarget=0;fillColor=none;points=[[0,0.5],[1,0.5]];portConstraint=eastwest;fontSize=16;fontFamily=Helvetica;fontColor=default;labelBackgroundColor=default;" parent="D5LrwT91D5c0MHAF4rOE-63" vertex="1">
          <mxGeometry y="27" width="120" height="25" as="geometry" />
        </mxCell>
        <mxCell id="D5LrwT91D5c0MHAF4rOE-67" value="PiHole Unbound 2" style="shape=partialRectangle;html=1;whiteSpace=wrap;connectable=0;strokeColor=inherit;overflow=hidden;fillColor=none;top=0;left=0;bottom=0;right=0;pointerEvents=1;fontSize=12;align=left;spacingLeft=5;fontFamily=Helvetica;fontColor=default;labelBackgroundColor=default;" parent="D5LrwT91D5c0MHAF4rOE-66" vertex="1">
          <mxGeometry width="120" height="25" as="geometry">
            <mxRectangle width="120" height="25" as="alternateBounds" />
          </mxGeometry>
        </mxCell>
        <mxCell id="D5LrwT91D5c0MHAF4rOE-68" value="" style="shape=tableRow;horizontal=0;startSize=0;swimlaneHead=0;swimlaneBody=0;strokeColor=inherit;top=0;left=0;bottom=0;right=0;collapsible=0;dropTarget=0;fillColor=none;points=[[0,0.5],[1,0.5]];portConstraint=eastwest;fontSize=16;fontFamily=Helvetica;fontColor=default;labelBackgroundColor=default;" parent="D5LrwT91D5c0MHAF4rOE-63" vertex="1">
          <mxGeometry y="52" width="120" height="27" as="geometry" />
        </mxCell>
        <mxCell id="D5LrwT91D5c0MHAF4rOE-69" value="UptimeKuma" style="shape=partialRectangle;html=1;whiteSpace=wrap;connectable=0;strokeColor=inherit;overflow=hidden;fillColor=none;top=0;left=0;bottom=0;right=0;pointerEvents=1;fontSize=12;align=left;spacingLeft=5;fontFamily=Helvetica;fontColor=default;labelBackgroundColor=default;" parent="D5LrwT91D5c0MHAF4rOE-68" vertex="1">
          <mxGeometry width="120" height="27" as="geometry">
            <mxRectangle width="120" height="27" as="alternateBounds" />
          </mxGeometry>
        </mxCell>
        <mxCell id="D5LrwT91D5c0MHAF4rOE-70" style="shape=tableRow;horizontal=0;startSize=0;swimlaneHead=0;swimlaneBody=0;strokeColor=inherit;top=0;left=0;bottom=0;right=0;collapsible=0;dropTarget=0;fillColor=none;points=[[0,0.5],[1,0.5]];portConstraint=eastwest;fontSize=16;fontFamily=Helvetica;fontColor=default;labelBackgroundColor=default;" parent="D5LrwT91D5c0MHAF4rOE-63" vertex="1">
          <mxGeometry y="79" width="120" height="25" as="geometry" />
        </mxCell>
        <mxCell id="D5LrwT91D5c0MHAF4rOE-71" value="Factorio" style="shape=partialRectangle;html=1;whiteSpace=wrap;connectable=0;strokeColor=inherit;overflow=hidden;fillColor=none;top=0;left=0;bottom=0;right=0;pointerEvents=1;fontSize=12;align=left;spacingLeft=5;fontFamily=Helvetica;fontColor=default;labelBackgroundColor=default;" parent="D5LrwT91D5c0MHAF4rOE-70" vertex="1">
          <mxGeometry width="120" height="25" as="geometry">
            <mxRectangle width="120" height="25" as="alternateBounds" />
          </mxGeometry>
        </mxCell>
        <mxCell id="D5LrwT91D5c0MHAF4rOE-27" value="Unraid" style="swimlane;startSize=20;html=1;fontFamily=Helvetica;fontSize=11;fontColor=default;labelBackgroundColor=default;" parent="1" vertex="1">
          <mxGeometry x="580" y="198.25" width="120" height="105" as="geometry" />
        </mxCell>
        <mxCell id="D5LrwT91D5c0MHAF4rOE-74" value="" style="shape=table;startSize=0;container=1;collapsible=0;childLayout=tableLayout;fontSize=11;fillColor=none;strokeColor=none;fontFamily=Helvetica;fontColor=default;labelBackgroundColor=default;" parent="D5LrwT91D5c0MHAF4rOE-27" vertex="1">
          <mxGeometry y="26" width="62" height="77" as="geometry" />
        </mxCell>
        <mxCell id="D5LrwT91D5c0MHAF4rOE-86" value="" style="shape=tableRow;horizontal=0;startSize=0;swimlaneHead=0;swimlaneBody=0;strokeColor=inherit;top=0;left=0;bottom=0;right=0;collapsible=0;dropTarget=0;fillColor=none;points=[[0,0.5],[1,0.5]];portConstraint=eastwest;fontSize=16;fontFamily=Helvetica;fontColor=default;labelBackgroundColor=default;" parent="D5LrwT91D5c0MHAF4rOE-74" vertex="1">
          <mxGeometry width="62" height="25" as="geometry" />
        </mxCell>
        <mxCell id="D5LrwT91D5c0MHAF4rOE-87" value="CIFS" style="shape=partialRectangle;html=1;whiteSpace=wrap;connectable=0;strokeColor=inherit;overflow=hidden;fillColor=none;top=0;left=0;bottom=0;right=0;pointerEvents=1;fontSize=12;align=left;spacingLeft=5;fontFamily=Helvetica;fontColor=default;labelBackgroundColor=default;" parent="D5LrwT91D5c0MHAF4rOE-86" vertex="1">
          <mxGeometry width="62" height="25" as="geometry">
            <mxRectangle width="62" height="25" as="alternateBounds" />
          </mxGeometry>
        </mxCell>
        <mxCell id="D5LrwT91D5c0MHAF4rOE-75" value="" style="shape=tableRow;horizontal=0;startSize=0;swimlaneHead=0;swimlaneBody=0;strokeColor=inherit;top=0;left=0;bottom=0;right=0;collapsible=0;dropTarget=0;fillColor=none;points=[[0,0.5],[1,0.5]];portConstraint=eastwest;fontSize=16;fontFamily=Helvetica;fontColor=default;labelBackgroundColor=default;" parent="D5LrwT91D5c0MHAF4rOE-74" vertex="1">
          <mxGeometry y="25" width="62" height="27" as="geometry" />
        </mxCell>
        <mxCell id="D5LrwT91D5c0MHAF4rOE-76" value="Plex" style="shape=partialRectangle;html=1;whiteSpace=wrap;connectable=0;strokeColor=inherit;overflow=hidden;fillColor=none;top=0;left=0;bottom=0;right=0;pointerEvents=1;fontSize=12;align=left;spacingLeft=5;fontFamily=Helvetica;fontColor=default;labelBackgroundColor=default;" parent="D5LrwT91D5c0MHAF4rOE-75" vertex="1">
          <mxGeometry width="62" height="27" as="geometry">
            <mxRectangle width="62" height="27" as="alternateBounds" />
          </mxGeometry>
        </mxCell>
        <mxCell id="D5LrwT91D5c0MHAF4rOE-77" value="" style="shape=tableRow;horizontal=0;startSize=0;swimlaneHead=0;swimlaneBody=0;strokeColor=inherit;top=0;left=0;bottom=0;right=0;collapsible=0;dropTarget=0;fillColor=none;points=[[0,0.5],[1,0.5]];portConstraint=eastwest;fontSize=16;fontFamily=Helvetica;fontColor=default;labelBackgroundColor=default;" parent="D5LrwT91D5c0MHAF4rOE-74" vertex="1">
          <mxGeometry y="52" width="62" height="25" as="geometry" />
        </mxCell>
        <mxCell id="D5LrwT91D5c0MHAF4rOE-78" value="Duplicati" style="shape=partialRectangle;html=1;whiteSpace=wrap;connectable=0;strokeColor=inherit;overflow=hidden;fillColor=none;top=0;left=0;bottom=0;right=0;pointerEvents=1;fontSize=12;align=left;spacingLeft=5;fontFamily=Helvetica;fontColor=default;labelBackgroundColor=default;" parent="D5LrwT91D5c0MHAF4rOE-77" vertex="1">
          <mxGeometry width="62" height="25" as="geometry">
            <mxRectangle width="62" height="25" as="alternateBounds" />
          </mxGeometry>
        </mxCell>
        <mxCell id="D5LrwT91D5c0MHAF4rOE-72" style="edgeStyle=none;shape=connector;rounded=0;orthogonalLoop=1;jettySize=auto;html=1;exitX=1;exitY=0;exitDx=0;exitDy=0;entryX=0;entryY=0;entryDx=0;entryDy=0;dashed=1;strokeColor=default;align=center;verticalAlign=middle;fontFamily=Helvetica;fontSize=11;fontColor=default;labelBackgroundColor=default;endArrow=none;endFill=0;" parent="1" source="8GofJGXbrdM40KDC0A-a-7" target="D5LrwT91D5c0MHAF4rOE-24" edge="1">
          <mxGeometry relative="1" as="geometry" />
        </mxCell>
        <mxCell id="D5LrwT91D5c0MHAF4rOE-73" style="edgeStyle=none;shape=connector;rounded=0;orthogonalLoop=1;jettySize=auto;html=1;exitX=1;exitY=1;exitDx=0;exitDy=0;entryX=0;entryY=1;entryDx=0;entryDy=0;dashed=1;strokeColor=default;align=center;verticalAlign=middle;fontFamily=Helvetica;fontSize=11;fontColor=default;labelBackgroundColor=default;endArrow=none;endFill=0;" parent="1" source="8GofJGXbrdM40KDC0A-a-7" target="D5LrwT91D5c0MHAF4rOE-25" edge="1">
          <mxGeometry relative="1" as="geometry" />
        </mxCell>
        <mxCell id="D5LrwT91D5c0MHAF4rOE-95" value="&lt;b&gt;&lt;font style=&quot;font-size: 12px;&quot;&gt;ISP&lt;/font&gt;&lt;/b&gt;" style="image;aspect=fixed;perimeter=ellipsePerimeter;html=1;align=center;shadow=0;dashed=0;spacingTop=3;image=img/lib/active_directory/internet_cloud.svg;fontFamily=Helvetica;fontSize=11;fontColor=default;labelBackgroundColor=default;" parent="1" vertex="1">
          <mxGeometry x="48" y="299.75" width="71.43" height="45" as="geometry" />
        </mxCell>
        <mxCell id="D5LrwT91D5c0MHAF4rOE-98" style="edgeStyle=elbowEdgeStyle;shape=connector;rounded=0;orthogonalLoop=1;jettySize=auto;elbow=vertical;html=1;exitX=1;exitY=0.5;exitDx=0;exitDy=0;entryX=0;entryY=0.5;entryDx=0;entryDy=0;entryPerimeter=0;strokeColor=default;strokeWidth=3;align=center;verticalAlign=middle;fontFamily=Helvetica;fontSize=11;fontColor=default;labelBackgroundColor=default;endArrow=none;endFill=0;" parent="1" source="D5LrwT91D5c0MHAF4rOE-95" target="lbnmV9Moz0TXLxYADeuH-7" edge="1">
          <mxGeometry relative="1" as="geometry" />
        </mxCell>
      </root>
    </mxGraphModel>
  </diagram>
</mxfile>
